<?xml version="1.0" encoding="UTF-8"?>
<svg viewBox="0 0 1620 640" width="1620" height="640" xmlns="http://www.w3.org/2000/svg" font-family="Helvetica, Arial, sans-serif">
  <defs>
    <marker id="arrow" viewBox="0 0 10 10" refX="9" refY="5" markerWidth="7" markerHeight="7" orient="auto-start-reverse">
      <path d="M0,0 L10,5 L0,10 z" fill="#64748b"/>
    </marker>
  </defs>

  <rect x="0" y="0" width="1620" height="640" fill="#ffffff"/>

  <rect x="790" y="90" width="430" height="440" rx="14" fill="none" stroke="#cbd5e1" stroke-width="2" stroke-dasharray="6,6"/>
  <text x="1005" y="75" font-size="15" fill="#475569" text-anchor="middle" font-style="italic">Hybrid retrieval - structure and meaning, merged at query time</text>

  <rect x="20" y="260" width="150" height="80" rx="10" fill="#1e293b"/>
  <text x="95" y="292" font-size="15" fill="#ffffff" text-anchor="middle">GitHub URL /</text>
  <text x="95" y="313" font-size="15" fill="#ffffff" text-anchor="middle">Local Folder</text>

  <rect x="210" y="260" width="150" height="80" rx="10" fill="#1e293b"/>
  <text x="285" y="292" font-size="15" fill="#ffffff" text-anchor="middle">Ingest</text>
  <text x="285" y="313" font-size="13" fill="#cbd5e1" text-anchor="middle">clone + walk *.py</text>

  <rect x="400" y="260" width="170" height="80" rx="10" fill="#1e293b"/>
  <text x="485" y="292" font-size="15" fill="#ffffff" text-anchor="middle">AST Parse</text>
  <text x="485" y="313" font-size="13" fill="#cbd5e1" text-anchor="middle">functions, imports, calls</text>

  <rect x="610" y="260" width="170" height="80" rx="10" fill="#1e293b"/>
  <text x="695" y="292" font-size="15" fill="#ffffff" text-anchor="middle">Resolve Calls</text>
  <text x="695" y="313" font-size="13" fill="#cbd5e1" text-anchor="middle">same-file + import map</text>

  <rect x="820" y="130" width="200" height="80" rx="10" fill="#92400e"/>
  <text x="920" y="162" font-size="15" fill="#ffffff" text-anchor="middle">Call and Import Graph</text>
  <text x="920" y="183" font-size="13" fill="#fde8cd" text-anchor="middle">Postgres - structural</text>

  <rect x="610" y="430" width="170" height="70" rx="10" fill="#1e293b"/>
  <text x="695" y="460" font-size="15" fill="#ffffff" text-anchor="middle">Embed Functions</text>
  <text x="695" y="479" font-size="13" fill="#cbd5e1" text-anchor="middle">MiniLM, 384-d</text>

  <rect x="820" y="420" width="200" height="80" rx="10" fill="#0f766e"/>
  <text x="920" y="452" font-size="15" fill="#ffffff" text-anchor="middle">Function Embeddings</text>
  <text x="920" y="473" font-size="13" fill="#ccfbf1" text-anchor="middle">pgvector - semantic</text>

  <rect x="1060" y="265" width="150" height="90" rx="10" fill="#4338ca"/>
  <text x="1135" y="300" font-size="15" fill="#ffffff" text-anchor="middle">Router</text>
  <text x="1135" y="321" font-size="12" fill="#e0e7ff" text-anchor="middle">semantic | impact</text>
  <text x="1135" y="337" font-size="12" fill="#e0e7ff" text-anchor="middle">| both</text>

  <rect x="1260" y="265" width="140" height="90" rx="10" fill="#7c3aed"/>
  <text x="1330" y="303" font-size="15" fill="#ffffff" text-anchor="middle">LLM</text>
  <text x="1330" y="324" font-size="12" fill="#ede9fe" text-anchor="middle">curated context</text>

  <rect x="1450" y="265" width="150" height="90" rx="10" fill="#1e293b"/>
  <text x="1525" y="300" font-size="15" fill="#ffffff" text-anchor="middle">Streamlit /</text>
  <text x="1525" y="321" font-size="15" fill="#ffffff" text-anchor="middle">FastAPI</text>

  <line x1="170" y1="300" x2="205" y2="300" stroke="#64748b" stroke-width="2" marker-end="url(#arrow)"/>
  <line x1="360" y1="300" x2="395" y2="300" stroke="#64748b" stroke-width="2" marker-end="url(#arrow)"/>
  <line x1="570" y1="300" x2="605" y2="300" stroke="#64748b" stroke-width="2" marker-end="url(#arrow)"/>

  <line x1="780" y1="285" x2="815" y2="200" stroke="#64748b" stroke-width="2" marker-end="url(#arrow)"/>
  <line x1="695" y1="340" x2="695" y2="425" stroke="#64748b" stroke-width="2" marker-end="url(#arrow)"/>
  <line x1="780" y1="465" x2="815" y2="462" stroke="#64748b" stroke-width="2" marker-end="url(#arrow)"/>

  <line x1="1020" y1="195" x2="1055" y2="295" stroke="#64748b" stroke-width="2" marker-end="url(#arrow)"/>
  <line x1="1020" y1="455" x2="1055" y2="330" stroke="#64748b" stroke-width="2" marker-end="url(#arrow)"/>

  <line x1="1210" y1="310" x2="1255" y2="310" stroke="#64748b" stroke-width="2" marker-end="url(#arrow)"/>
  <line x1="1400" y1="310" x2="1445" y2="310" stroke="#64748b" stroke-width="2" marker-end="url(#arrow)"/>

  <rect x="20" y="570" width="16" height="16" fill="#92400e"/>
  <text x="42" y="583" font-size="13" fill="#334155">Structural (SQL edges)</text>
  <rect x="220" y="570" width="16" height="16" fill="#0f766e"/>
  <text x="242" y="583" font-size="13" fill="#334155">Semantic (pgvector cosine)</text>
  <rect x="440" y="570" width="16" height="16" fill="#7c3aed"/>
  <text x="462" y="583" font-size="13" fill="#334155">LLM reasoning</text>
</svg>
